<svg xmlns="http://www.w3.org/2000/svg" viewBox="0 0 400 400" fill="none">
  <circle cx="23" cy="15" r="1.5" fill="#D8CEBA" opacity="0.35"/>
  <circle cx="67" cy="28" r="1" fill="#7C8493" opacity="0.2"/>
  <circle cx="112" cy="12" r="1.8" fill="#D8CEBA" opacity="0.25"/>
  <circle cx="158" cy="35" r="1.2" fill="#7C8493" opacity="0.18"/>
  <circle cx="205" cy="18" r="1.5" fill="#D8CEBA" opacity="0.3"/>
  <circle cx="248" cy="42" r="1" fill="#7C8493" opacity="0.22"/>
  <circle cx="295" cy="8" r="1.6" fill="#D8CEBA" opacity="0.28"/>
  <circle cx="340" cy="30" r="1.3" fill="#7C8493" opacity="0.2"/>
  <circle cx="385" cy="20" r="1" fill="#D8CEBA" opacity="0.32"/>
  <circle cx="35" cy="65" r="1.2" fill="#7C8493" opacity="0.22"/>
  <circle cx="82" cy="78" r="1.6" fill="#D8CEBA" opacity="0.3"/>
  <circle cx="130" cy="58" r="1" fill="#7C8493" opacity="0.18"/>
  <circle cx="175" cy="82" r="1.4" fill="#D8CEBA" opacity="0.26"/>
  <circle cx="218" cy="68" r="1.8" fill="#7C8493" opacity="0.2"/>
  <circle cx="262" cy="90" r="1.2" fill="#D8CEBA" opacity="0.32"/>
  <circle cx="310" cy="55" r="1.5" fill="#7C8493" opacity="0.24"/>
  <circle cx="355" cy="75" r="1" fill="#D8CEBA" opacity="0.28"/>
  <circle cx="15" cy="118" r="1.4" fill="#D8CEBA" opacity="0.28"/>
  <circle cx="58" cy="130" r="1" fill="#7C8493" opacity="0.2"/>
  <circle cx="105" cy="112" r="1.7" fill="#D8CEBA" opacity="0.32"/>
  <circle cx="148" cy="138" r="1.2" fill="#7C8493" opacity="0.18"/>
  <circle cx="195" cy="120" r="1.5" fill="#D8CEBA" opacity="0.25"/>
  <circle cx="240" cy="142" r="1" fill="#7C8493" opacity="0.22"/>
  <circle cx="288" cy="108" r="1.6" fill="#D8CEBA" opacity="0.3"/>
  <circle cx="332" cy="135" r="1.3" fill="#7C8493" opacity="0.2"/>
  <circle cx="378" cy="125" r="1.1" fill="#D8CEBA" opacity="0.26"/>
  <circle cx="28" cy="170" r="1" fill="#7C8493" opacity="0.2"/>
  <circle cx="72" cy="182" r="1.5" fill="#D8CEBA" opacity="0.3"/>
  <circle cx="118" cy="165" r="1.3" fill="#7C8493" opacity="0.24"/>
  <circle cx="162" cy="188" r="1.8" fill="#D8CEBA" opacity="0.28"/>
  <circle cx="210" cy="172" r="1" fill="#7C8493" opacity="0.18"/>
  <circle cx="255" cy="195" r="1.4" fill="#D8CEBA" opacity="0.32"/>
  <circle cx="298" cy="162" r="1.6" fill="#7C8493" opacity="0.22"/>
  <circle cx="345" cy="185" r="1.2" fill="#D8CEBA" opacity="0.26"/>
  <circle cx="390" cy="175" r="1" fill="#7C8493" opacity="0.2"/>
  <circle cx="40" cy="225" r="1.6" fill="#D8CEBA" opacity="0.32"/>
  <circle cx="85" cy="238" r="1.2" fill="#7C8493" opacity="0.18"/>
  <circle cx="128" cy="218" r="1" fill="#D8CEBA" opacity="0.28"/>
  <circle cx="172" cy="242" r="1.5" fill="#7C8493" opacity="0.22"/>
  <circle cx="220" cy="228" r="1.8" fill="#D8CEBA" opacity="0.25"/>
  <circle cx="265" cy="248" r="1.3" fill="#7C8493" opacity="0.2"/>
  <circle cx="308" cy="215" r="1" fill="#D8CEBA" opacity="0.3"/>
  <circle cx="355" cy="240" r="1.4" fill="#7C8493" opacity="0.24"/>
  <circle cx="20" cy="278" r="1.2" fill="#7C8493" opacity="0.22"/>
  <circle cx="65" cy="290" r="1.5" fill="#D8CEBA" opacity="0.28"/>
  <circle cx="110" cy="272" r="1" fill="#7C8493" opacity="0.18"/>
  <circle cx="155" cy="295" r="1.7" fill="#D8CEBA" opacity="0.32"/>
  <circle cx="202" cy="280" r="1.3" fill="#7C8493" opacity="0.2"/>
  <circle cx="248" cy="298" r="1" fill="#D8CEBA" opacity="0.26"/>
  <circle cx="292" cy="268" r="1.6" fill="#7C8493" opacity="0.24"/>
  <circle cx="338" cy="292" r="1.2" fill="#D8CEBA" opacity="0.3"/>
  <circle cx="382" cy="282" r="1.5" fill="#7C8493" opacity="0.18"/>
  <circle cx="32" cy="335" r="1" fill="#D8CEBA" opacity="0.26"/>
  <circle cx="78" cy="348" r="1.4" fill="#7C8493" opacity="0.2"/>
  <circle cx="122" cy="328" r="1.6" fill="#D8CEBA" opacity="0.3"/>
  <circle cx="168" cy="352" r="1.2" fill="#7C8493" opacity="0.22"/>
  <circle cx="215" cy="338" r="1.5" fill="#D8CEBA" opacity="0.28"/>
  <circle cx="258" cy="355" r="1" fill="#7C8493" opacity="0.18"/>
  <circle cx="305" cy="325" r="1.8" fill="#D8CEBA" opacity="0.32"/>
  <circle cx="348" cy="345" r="1.3" fill="#7C8493" opacity="0.2"/>
  <circle cx="392" cy="338" r="1" fill="#D8CEBA" opacity="0.25"/>
  <circle cx="45" cy="385" r="1.5" fill="#7C8493" opacity="0.22"/>
  <circle cx="92" cy="392" r="1.2" fill="#D8CEBA" opacity="0.28"/>
  <circle cx="138" cy="378" r="1" fill="#7C8493" opacity="0.18"/>
  <circle cx="185" cy="395" r="1.6" fill="#D8CEBA" opacity="0.3"/>
  <circle cx="230" cy="382" r="1.3" fill="#7C8493" opacity="0.2"/>
  <circle cx="275" cy="398" r="1" fill="#D8CEBA" opacity="0.26"/>
  <circle cx="320" cy="375" r="1.4" fill="#7C8493" opacity="0.24"/>
  <circle cx="368" cy="390" r="1.7" fill="#D8CEBA" opacity="0.32"/>
</svg>
