<svg xmlns="http://www.w3.org/2000/svg" viewBox="0 0 800 400" fill="none">
  <g stroke="#2D7E67" stroke-width="0.3" opacity="0.15">
    <line x1="0" y1="100" x2="800" y2="100"/>
    <line x1="0" y1="200" x2="800" y2="200"/>
    <line x1="0" y1="300" x2="800" y2="300"/>
    <line x1="200" y1="0" x2="200" y2="400"/>
    <line x1="400" y1="0" x2="400" y2="400"/>
    <line x1="600" y1="0" x2="600" y2="400"/>
  </g>
  <rect x="80" y="140" width="70" height="22" rx="11" fill="#101B33" opacity="0.7"/>
  <rect x="95" y="170" width="50" height="16" rx="8" fill="#101B33" opacity="0.5"/>
  <rect x="180" y="230" width="90" height="14" rx="7" fill="#101B33" opacity="0.7"/>
  <rect x="200" y="250" width="55" height="10" rx="5" fill="#101B33" opacity="0.4"/>
  <rect x="310" y="120" width="80" height="65" rx="20" fill="#101B33" opacity="0.6"/>
  <rect x="330" y="195" width="45" height="18" rx="9" fill="#101B33" opacity="0.4"/>
  <rect x="460" y="130" width="35" height="70" rx="12" fill="#101B33" opacity="0.6"/>
  <rect x="500" y="155" width="28" height="45" rx="10" fill="#101B33" opacity="0.45"/>
  <rect x="560" y="220" width="22" height="14" rx="7" fill="#101B33" opacity="0.4"/>
  <rect x="595" y="210" width="18" height="12" rx="6" fill="#101B33" opacity="0.35"/>
  <rect x="650" y="145" width="85" height="50" rx="18" fill="#101B33" opacity="0.6"/>
  <rect x="670" y="200" width="50" height="16" rx="8" fill="#101B33" opacity="0.4"/>
  <polyline points="115,151 180,237 270,237 350,152 477,165 571,227 692,170" stroke="#2D75B8" stroke-width="1.2" stroke-dasharray="4 3" opacity="0.5" fill="none"/>
  <polyline points="120,160 200,180 340,175 490,185 600,200 700,180" stroke="#2D7E67" stroke-width="0.8" opacity="0.35" fill="none"/>
  <circle cx="115" cy="151" r="5" fill="#2D7E67"/>
  <circle cx="115" cy="151" r="9" stroke="#2D7E67" stroke-width="0.8" opacity="0.3" fill="none"/>
  <circle cx="225" cy="237" r="4.5" fill="#2D75B8"/>
  <circle cx="225" cy="237" r="8" stroke="#2D75B8" stroke-width="0.8" opacity="0.3" fill="none"/>
  <circle cx="350" cy="152" r="5.5" fill="#7256C8"/>
  <circle cx="350" cy="152" r="10" stroke="#7256C8" stroke-width="0.8" opacity="0.3" fill="none"/>
  <circle cx="477" cy="165" r="4" fill="#2D7E67"/>
  <circle cx="477" cy="165" r="7" stroke="#2D7E67" stroke-width="0.8" opacity="0.3" fill="none"/>
  <circle cx="571" cy="227" r="3.5" fill="#2D75B8"/>
  <circle cx="692" cy="170" r="5" fill="#7256C8"/>
  <circle cx="692" cy="170" r="9" stroke="#7256C8" stroke-width="0.8" opacity="0.3" fill="none"/>
  <circle cx="140" cy="190" r="2" fill="#2D75B8" opacity="0.5"/>
  <circle cx="260" cy="210" r="1.5" fill="#2D7E67" opacity="0.4"/>
  <circle cx="310" cy="250" r="2" fill="#7256C8" opacity="0.35"/>
  <circle cx="420" cy="180" r="1.5" fill="#2D75B8" opacity="0.4"/>
  <circle cx="530" cy="200" r="2" fill="#2D7E67" opacity="0.45"/>
  <circle cx="620" cy="175" r="1.5" fill="#7256C8" opacity="0.3"/>
  <circle cx="730" cy="210" r="2" fill="#2D75B8" opacity="0.4"/>
  <g opacity="0.4">
    <rect x="113" y="120" width="4" height="20" rx="2" fill="#2D7E67"/>
    <rect x="223" y="210" width="4" height="18" rx="2" fill="#2D75B8"/>
    <rect x="348" y="115" width="4" height="25" rx="2" fill="#7256C8"/>
    <rect x="475" y="138" width="4" height="16" rx="2" fill="#2D7E67"/>
    <rect x="690" y="140" width="4" height="20" rx="2" fill="#7256C8"/>
  </g>
</svg>
