<svg xmlns="http://www.w3.org/2000/svg" viewBox="0 0 800 200" fill="none">
  <!-- Flow nodes -->
  <!-- Node 1: Data -->
  <rect x="20" y="65" width="110" height="70" rx="8" fill="#1C273B" opacity="0.9"/>
  <rect x="20" y="65" width="110" height="70" rx="8" stroke="#2D7E67" stroke-width="1" fill="none" opacity="0.5"/>
  <circle cx="75" cy="88" r="8" fill="none" stroke="#2D7E67" stroke-width="1.2"/>
  <circle cx="75" cy="88" r="3" fill="#2D7E67"/>
  <rect x="45" y="108" width="60" height="3" rx="1.5" fill="#2D7E67" opacity="0.5"/>
  <rect x="50" y="116" width="50" height="2" rx="1" fill="#2D7E67" opacity="0.3"/>
  <!-- Arrow 1 -->
  <line x1="135" y1="100" x2="170" y2="100" stroke="#7C8493" stroke-width="1.2"/>
  <polyline points="166,96 174,100 166,104" stroke="#7C8493" stroke-width="1.2" fill="none"/>
  <!-- Node 2: Feature -->
  <rect x="178" y="65" width="110" height="70" rx="8" fill="#1C273B" opacity="0.9"/>
  <rect x="178" y="65" width="110" height="70" rx="8" stroke="#2D75B8" stroke-width="1" fill="none" opacity="0.5"/>
  <rect x="210" y="82" width="14" height="14" rx="2" fill="none" stroke="#2D75B8" stroke-width="1.2"/>
  <rect x="228" y="82" width="14" height="14" rx="2" fill="none" stroke="#2D75B8" stroke-width="1.2" opacity="0.6"/>
  <rect x="219" y="90" width="14" height="14" rx="2" fill="none" stroke="#2D75B8" stroke-width="1.2" opacity="0.8"/>
  <rect x="203" y="108" width="60" height="3" rx="1.5" fill="#2D75B8" opacity="0.5"/>
  <rect x="208" y="116" width="50" height="2" rx="1" fill="#2D75B8" opacity="0.3"/>
  <!-- Arrow 2 -->
  <line x1="293" y1="100" x2="328" y2="100" stroke="#7C8493" stroke-width="1.2"/>
  <polyline points="324,96 332,100 324,104" stroke="#7C8493" stroke-width="1.2" fill="none"/>
  <!-- Node 3: Model -->
  <rect x="336" y="65" width="110" height="70" rx="8" fill="#1C273B" opacity="0.9"/>
  <rect x="336" y="65" width="110" height="70" rx="8" stroke="#7256C8" stroke-width="1" fill="none" opacity="0.5"/>
  <polygon points="391,80 403,95 391,95" fill="none" stroke="#7256C8" stroke-width="1.2"/>
  <polygon points="391,80 379,95 391,95" fill="#7256C8" opacity="0.3"/>
  <line x1="379" y1="95" x2="403" y2="95" stroke="#7256C8" stroke-width="1"/>
  <rect x="361" y="108" width="60" height="3" rx="1.5" fill="#7256C8" opacity="0.5"/>
  <rect x="366" y="116" width="50" height="2" rx="1" fill="#7256C8" opacity="0.3"/>
  <!-- Arrow 3 -->
  <line x1="451" y1="100" x2="486" y2="100" stroke="#7C8493" stroke-width="1.2"/>
  <polyline points="482,96 490,100 482,104" stroke="#7C8493" stroke-width="1.2" fill="none"/>
  <!-- Node 4: Validation -->
  <rect x="494" y="65" width="110" height="70" rx="8" fill="#1C273B" opacity="0.9"/>
  <rect x="494" y="65" width="110" height="70" rx="8" stroke="#2D75B8" stroke-width="1" fill="none" opacity="0.5"/>
  <polyline points="525,95 535,85 545,90 555,82 565,88 575,80" stroke="#2D75B8" stroke-width="1.3" fill="none" stroke-linecap="round"/>
  <rect x="519" y="108" width="60" height="3" rx="1.5" fill="#2D75B8" opacity="0.5"/>
  <rect x="524" y="116" width="50" height="2" rx="1" fill="#2D75B8" opacity="0.3"/>
  <!-- Arrow 4 -->
  <line x1="609" y1="100" x2="644" y2="100" stroke="#7C8493" stroke-width="1.2"/>
  <polyline points="640,96 648,100 640,104" stroke="#7C8493" stroke-width="1.2" fill="none"/>
  <!-- Node 5: SHAP -->
  <rect x="652" y="65" width="110" height="70" rx="8" fill="#1C273B" opacity="0.9"/>
  <rect x="652" y="65" width="110" height="70" rx="8" stroke="#2D7E67" stroke-width="1" fill="none" opacity="0.5"/>
  <rect x="680" y="82" width="8" height="20" rx="1" fill="#2D7E67" opacity="0.7"/>
  <rect x="692" y="87" width="8" height="15" rx="1" fill="#D4513E" opacity="0.6"/>
  <rect x="704" y="79" width="8" height="23" rx="1" fill="#2D7E67" opacity="0.5"/>
  <rect x="716" y="90" width="8" height="12" rx="1" fill="#D4513E" opacity="0.4"/>
  <rect x="677" y="108" width="60" height="3" rx="1.5" fill="#2D7E67" opacity="0.5"/>
  <rect x="682" y="116" width="50" height="2" rx="1" fill="#2D7E67" opacity="0.3"/>
  <!-- Step numbers -->
  <text x="75" y="155" text-anchor="middle" fill="#7C8493" font-family="system-ui,sans-serif" font-size="10" opacity="0.5">01</text>
  <text x="233" y="155" text-anchor="middle" fill="#7C8493" font-family="system-ui,sans-serif" font-size="10" opacity="0.5">02</text>
  <text x="391" y="155" text-anchor="middle" fill="#7C8493" font-family="system-ui,sans-serif" font-size="10" opacity="0.5">03</text>
  <text x="549" y="155" text-anchor="middle" fill="#7C8493" font-family="system-ui,sans-serif" font-size="10" opacity="0.5">04</text>
  <text x="707" y="155" text-anchor="middle" fill="#7C8493" font-family="system-ui,sans-serif" font-size="10" opacity="0.5">05</text>
</svg>
