<svg xmlns="http://www.w3.org/2000/svg" viewBox="0 0 1440 200" fill="none">
  <path d="M0,100 C120,60 240,140 360,100 C480,60 600,140 720,100 C840,60 960,140 1080,100 C1200,60 1320,140 1440,100" stroke="#D8CEBA" stroke-width="1.5" opacity="0.3" fill="none"/>
  <path d="M0,110 C120,75 240,145 360,110 C480,75 600,145 720,110 C840,75 960,145 1080,110 C1200,75 1320,145 1440,110" stroke="#D8CEBA" stroke-width="1" opacity="0.2" fill="none"/>
  <path d="M0,120 C120,90 240,150 360,120 C480,90 600,150 720,120 C840,90 960,150 1080,120 C1200,90 1320,150 1440,120" stroke="#D8CEBA" stroke-width="0.8" opacity="0.15" fill="none"/>
  <path d="M0,90 C120,55 240,125 360,90 C480,55 600,125 720,90 C840,55 960,125 1080,90 C1200,55 1320,125 1440,90" stroke="#2D7E67" stroke-width="1" opacity="0.1" fill="none"/>
  <path d="M0,80 C120,50 240,110 360,80 C480,50 600,110 720,80 C840,50 960,110 1080,80 C1200,50 1320,110 1440,80" stroke="#2D7E67" stroke-width="0.6" opacity="0.07" fill="none"/>
  <path d="M0,130 C120,100 240,160 360,130 C480,100 600,160 720,130 C840,100 960,160 1080,130 C1200,100 1320,160 1440,130" stroke="#2D7E67" stroke-width="0.6" opacity="0.07" fill="none"/>
</svg>
