<svg viewBox="0 0 420 420" fill="none" xmlns="http://www.w3.org/2000/svg">
<g fill="#101B33" opacity=".15">
<circle cx="30" cy="30" r="2"/><circle cx="80" cy="62" r="3"/><circle cx="140" cy="28" r="2"/><circle cx="210" cy="74" r="3"/><circle cx="290" cy="38" r="2"/><circle cx="350" cy="88" r="3"/>
<circle cx="48" cy="138" r="3"/><circle cx="114" cy="162" r="2"/><circle cx="196" cy="132" r="3"/><circle cx="272" cy="168" r="2"/><circle cx="360" cy="138" r="3"/>
<circle cx="28" cy="254" r="2"/><circle cx="92" cy="226" r="3"/><circle cx="160" cy="272" r="2"/><circle cx="242" cy="238" r="3"/><circle cx="330" cy="284" r="2"/><circle cx="388" cy="248" r="3"/>
<circle cx="62" cy="352" r="3"/><circle cx="126" cy="324" r="2"/><circle cx="212" cy="368" r="3"/><circle cx="294" cy="332" r="2"/><circle cx="372" cy="370" r="3"/>
</g>
<g stroke="#7256C8" opacity=".13"><path d="M30 30L80 62L140 28L210 74L290 38L350 88"/><path d="M48 138L114 162L196 132L272 168L360 138"/><path d="M28 254L92 226L160 272L242 238L330 284L388 248"/></g>
</svg>
