<svg viewBox="0 0 1440 460" fill="none" xmlns="http://www.w3.org/2000/svg" preserveAspectRatio="none">
<path d="M-40 280C125 197 189 355 360 272C535 187 672 350 820 235C973 116 1135 326 1492 158" stroke="#92D6B8" stroke-width="3" opacity=".42"/>
<path d="M-40 342C135 245 275 410 464 319C624 242 753 367 908 286C1043 214 1175 304 1487 204" stroke="#D4513E" stroke-width="2" opacity=".3" stroke-dasharray="10 12"/>
<path d="M-40 186C135 90 289 275 480 169C669 64 823 248 1010 138C1131 67 1262 150 1487 79" stroke="#7256C8" stroke-width="2" opacity=".32"/>
</svg>
